<?xml version="1.0" standalone="no"?>
<!DOCTYPE svg PUBLIC "-//W3C//DTD SVG 20010904//EN"
 "http://www.w3.org/TR/2001/REC-SVG-20010904/DTD/svg10.dtd">
<svg version="1.0" xmlns="http://www.w3.org/2000/svg"
 width="256.000000pt" height="256.000000pt" viewBox="0 0 256.000000 256.000000"
 preserveAspectRatio="xMidYMid meet">

<g transform="translate(0.000000,256.000000) scale(0.100000,-0.100000)"
fill="#000000" stroke="none">
<path d="M463 2541 c-219 -63 -391 -239 -447 -458 -15 -55 -16 -153 -14 -825
l3 -763 23 -65 c67 -185 212 -332 395 -399 l72 -26 785 0 785 0 72 26 c183 67
328 214 395 399 l23 65 3 645 2 645 -577 -576 c-318 -318 -592 -584 -610 -593
-41 -20 -145 -21 -187 -1 -18 9 -190 174 -383 368 -340 342 -351 354 -363 405
-31 132 69 262 201 262 79 0 95 -13 370 -287 l267 -265 586 583 c322 320 586
590 586 599 0 27 -96 126 -171 176 -39 25 -103 58 -142 73 l-72 26 -770 2
c-711 2 -775 0 -832 -16z"/>
</g>
</svg>
