<?xml version="1.0" standalone="no"?>
<!DOCTYPE svg PUBLIC "-//W3C//DTD SVG 20010904//EN"
 "http://www.w3.org/TR/2001/REC-SVG-20010904/DTD/svg10.dtd">
<svg version="1.0" xmlns="http://www.w3.org/2000/svg"
 width="1600.000000pt" height="1600.000000pt" viewBox="0 0 1600.000000 1600.000000"
 preserveAspectRatio="xMidYMid meet">

<g transform="translate(0.000000,1600.000000) scale(0.100000,-0.100000)"
fill="#dddddd" stroke="none">
<path d="M7810 15119 c-981 -55 -1929 -311 -2825 -764 -294 -149 -463 -246
-715 -412 -2378 -1566 -3572 -4427 -3014 -7223 169 -843 496 -1656 968 -2405
449 -711 1051 -1365 1723 -1871 1185 -892 2585 -1377 4073 -1411 953 -21 1912
157 2809 523 235 96 676 314 891 440 834 489 1543 1122 2112 1885 929 1246
1421 2782 1385 4329 -25 1058 -267 2051 -731 2995 -658 1337 -1696 2408 -3015
3111 -1105 589 -2401 873 -3661 803z m860 -1089 c686 -64 1320 -228 1934 -500
1099 -486 2056 -1328 2679 -2356 473 -782 747 -1604 844 -2534 24 -236 24
-879 0 -1105 -89 -819 -299 -1532 -649 -2205 -516 -992 -1286 -1812 -2240
-2381 -686 -410 -1480 -685 -2275 -790 -407 -53 -1027 -64 -1350 -24 -21 3
-96 12 -168 20 -1473 174 -2897 944 -3841 2076 -234 281 -448 582 -584 824 -9
17 -41 72 -69 123 -191 338 -391 821 -505 1221 -459 1600 -243 3305 597 4721
273 459 552 817 941 1205 467 466 939 807 1526 1101 727 363 1431 552 2305
618 97 7 742 -3 855 -14z"/>
<path d="M7885 13096 c-127 -29 -218 -96 -268 -199 -56 -116 -58 -151 -48
-963 22 -1639 29 -3259 16 -3272 -2 -2 -788 1 -1747 8 -959 6 -1892 7 -2073 3
l-330 -8 -66 -33 c-78 -37 -141 -101 -174 -175 -39 -86 -48 -169 -43 -406 5
-191 8 -223 27 -273 31 -80 105 -159 189 -200 l66 -32 265 -8 c146 -4 1080
-12 2075 -17 995 -6 1811 -12 1813 -14 2 -2 8 -733 13 -1623 5 -890 12 -1825
15 -2077 5 -429 7 -461 26 -512 28 -75 104 -157 182 -194 93 -45 169 -54 416
-49 193 5 223 8 276 28 82 31 182 131 215 215 l24 60 0 1320 c0 726 -4 1658
-8 2072 l-8 752 134 3 c73 2 507 -1 963 -5 457 -5 1335 -6 1953 -3 1303 7
1185 -3 1303 115 101 101 111 133 117 401 3 144 1 240 -7 287 -25 144 -100
249 -220 306 l-65 31 -1400 7 c-771 4 -1707 8 -2082 8 l-681 1 -7 258 c-3 141
-11 961 -17 1822 -6 861 -14 1685 -17 1831 l-7 265 -33 66 c-41 83 -120 158
-200 189 -52 20 -78 22 -292 25 -174 3 -251 0 -295 -10z"/>
</g>
</svg>
