<?xml version="1.0" standalone="no"?>
<!DOCTYPE svg PUBLIC "-//W3C//DTD SVG 20010904//EN"
 "http://www.w3.org/TR/2001/REC-SVG-20010904/DTD/svg10.dtd">
<svg version="1.0" xmlns="http://www.w3.org/2000/svg"
 width="1600.000000pt" height="1600.000000pt" viewBox="0 0 1600.000000 1600.000000"
 preserveAspectRatio="xMidYMid meet">

<g transform="translate(0.000000,1600.000000) scale(0.100000,-0.100000)"
fill="#dddddd" stroke="none">
<path d="M5950 15515 c-290 -62 -502 -257 -592 -545 l-23 -75 2 -607 3 -608
-1136 0 c-1275 0 -1257 1 -1461 -70 -210 -73 -334 -147 -534 -316 -50 -42
-145 -150 -224 -254 -67 -88 -156 -266 -205 -411 -34 -102 -42 -141 -51 -252
-6 -87 -9 -1852 -6 -5217 3 -4538 5 -5093 19 -5155 18 -83 76 -248 113 -325
119 -243 283 -432 531 -613 76 -55 273 -149 404 -193 l115 -39 5204 -3 c5770
-2 5267 -8 5461 64 323 120 525 275 763 589 79 104 174 319 225 510 15 55 16
512 20 5190 3 5776 10 5258 -73 5483 -59 157 -66 174 -127 274 -82 133 -132
200 -205 275 -224 226 -453 358 -773 444 -34 10 -343 14 -1242 16 l-1198 4 3
607 2 607 -23 75 c-69 220 -202 379 -397 475 -128 64 -196 79 -340 79 -145 0
-213 -15 -345 -81 -80 -40 -110 -62 -191 -143 -81 -81 -102 -109 -142 -190
-78 -160 -78 -163 -87 -625 -5 -225 -9 -499 -9 -607 l-1 -198 -1280 0 -1280 0
-1 198 c0 108 -4 382 -9 607 -9 462 -9 465 -87 625 -40 81 -61 109 -142 190
-81 81 -111 103 -191 143 -52 26 -122 54 -155 63 -84 22 -255 27 -335 9z
m-593 -3852 c11 -735 9 -711 78 -860 77 -166 189 -281 361 -367 183 -91 423
-99 615 -21 71 29 185 101 245 157 55 51 143 182 177 263 53 129 52 120 49
833 l-3 662 1271 0 1271 0 -3 -662 c-3 -713 -4 -704 49 -833 124 -302 425
-491 748 -472 120 8 197 27 289 73 93 47 148 86 213 152 69 71 106 124 148
215 69 149 67 125 78 858 l10 667 496 1 c731 2 872 -11 1091 -101 165 -67 368
-221 460 -351 110 -153 201 -349 220 -474 7 -47 10 -1337 7 -4123 -4 -4368 -1
-4108 -52 -4285 -65 -226 -228 -469 -394 -591 -91 -66 -269 -160 -371 -196
l-95 -33 -4075 0 c-3780 0 -4083 1 -4185 17 -247 38 -463 142 -644 310 -41 38
-91 93 -112 123 -112 161 -202 354 -219 476 -13 85 -13 7870 0 8084 12 219 35
324 102 480 63 144 213 340 329 428 123 93 361 208 469 227 25 4 342 8 706 9
l661 1 10 -667z"/>
<path d="M5295 9339 c-219 -20 -413 -156 -516 -364 -69 -139 -69 -138 -69
-905 0 -770 0 -765 71 -910 33 -66 60 -102 124 -166 69 -70 97 -89 195 -138
182 -90 158 -88 929 -83 749 4 737 3 891 78 114 56 238 178 292 289 69 139 68
127 68 900 0 775 1 759 -69 898 -89 178 -297 343 -487 388 -59 14 -159 16
-714 17 -355 1 -676 -1 -715 -4z"/>
<path d="M9700 9339 c-164 -17 -276 -74 -416 -214 -84 -83 -108 -114 -143
-185 -71 -145 -71 -141 -71 -900 0 -759 0 -755 71 -900 59 -118 169 -228 289
-288 156 -78 145 -77 920 -77 777 0 716 -6 910 87 92 44 115 61 190 137 63 64
94 105 122 161 69 143 69 139 66 945 -3 713 -3 721 -25 785 -55 161 -182 309
-325 379 -152 75 -133 73 -868 75 -360 0 -684 -2 -720 -5z"/>
<path d="M5280 5865 c-193 -36 -374 -174 -464 -355 -77 -156 -76 -144 -76
-920 0 -776 -1 -764 76 -919 79 -160 221 -281 394 -335 133 -42 247 -48 900
-44 534 4 612 6 665 21 85 24 190 79 257 132 70 56 177 195 223 290 71 145 69
123 73 805 4 672 0 734 -49 861 -78 202 -286 389 -509 456 -49 15 -133 17
-735 19 -542 2 -695 0 -755 -11z"/>
<path d="M9622 5869 c-81 -14 -206 -66 -269 -113 -83 -61 -213 -203 -250 -272
-17 -32 -42 -93 -55 -134 l-23 -75 0 -685 0 -685 31 -87 c76 -212 209 -372
375 -451 155 -74 126 -72 864 -72 708 0 742 2 875 52 194 72 368 267 415 464
22 94 22 1463 0 1556 -52 222 -222 404 -450 481 l-80 27 -690 1 c-379 1 -714
-2 -743 -7z"/>
</g>
</svg>
