<?xml version="1.0" encoding="UTF-8"?>
<!DOCTYPE svg PUBLIC "-//W3C//DTD SVG 1.1//EN" "http://www.w3.org/Graphics/SVG/1.1/DTD/svg11.dtd">
<svg xmlns="http://www.w3.org/2000/svg" version="1.1" width="1200px" height="320px" style="shape-rendering:geometricPrecision; text-rendering:geometricPrecision; image-rendering:optimizeQuality; fill-rule:evenodd; clip-rule:evenodd" xmlns:xlink="http://www.w3.org/1999/xlink">
<g><path style="opacity:0.994" fill="#666666" d="M 144.5,3.5 C 200.139,-0.579984 246.305,18.0867 283,59.5C 323.341,112.918 329.674,170.251 302,231.5C 275.429,280.03 234.596,308.197 179.5,316C 123.843,320.572 77.6764,302.072 41,260.5C 0.658883,207.082 -5.67445,149.749 22,88.5C 48.7262,39.9558 89.5595,11.6225 144.5,3.5 Z"/></g>
<g><path style="opacity:0.996" fill="#666666" d="M 582.5,3.5 C 638.139,-0.579984 684.305,18.0867 721,59.5C 761.341,112.918 767.674,170.251 740,231.5C 713.429,280.03 672.596,308.197 617.5,316C 561.843,320.572 515.676,302.072 479,260.5C 438.659,207.082 432.326,149.749 460,88.5C 486.726,39.9558 527.56,11.6225 582.5,3.5 Z"/></g>
<g><path style="opacity:0.994" fill="#666666" d="M 1020.5,3.5 C 1076.14,-0.579984 1122.31,18.0867 1159,59.5C 1199.34,112.918 1205.67,170.251 1178,231.5C 1151.43,280.03 1110.6,308.197 1055.5,316C 999.843,320.572 953.676,302.072 917,260.5C 876.659,207.082 870.326,149.749 898,88.5C 924.726,39.9558 965.56,11.6225 1020.5,3.5 Z"/></g>
</svg>
