<?xml version="1.0" encoding="UTF-8"?>
<!DOCTYPE svg PUBLIC "-//W3C//DTD SVG 1.1//EN" "http://www.w3.org/Graphics/SVG/1.1/DTD/svg11.dtd">
<svg xmlns="http://www.w3.org/2000/svg" version="1.1" width="1600px" height="1600px" style="shape-rendering:geometricPrecision; text-rendering:geometricPrecision; image-rendering:optimizeQuality; fill-rule:evenodd; clip-rule:evenodd" xmlns:xlink="http://www.w3.org/1999/xlink">
<g><path style="opacity:0.995" fill="#666666" d="M 685.5,171.5 C 761.834,171.333 838.167,171.5 914.5,172C 940.735,178.401 956.068,194.901 960.5,221.5C 1001.83,221.333 1043.17,221.5 1084.5,222C 1118.37,230.245 1136.37,251.745 1138.5,286.5C 912.5,286.5 686.5,286.5 460.5,286.5C 462.632,251.745 480.632,230.245 514.5,222C 556.165,221.5 597.832,221.333 639.5,221.5C 644.118,194.886 659.451,178.219 685.5,171.5 Z"/></g>
<g><path style="opacity:0.999" fill="#666666" d="M 268.5,326.5 C 622.501,326.333 976.501,326.5 1330.5,327C 1356.13,334.966 1371.63,352.133 1377,378.5C 1379.91,419.18 1361.75,445.013 1322.5,456C 1316.41,456.589 1310.57,457.755 1305,459.5C 1260.55,766.846 1216.05,1074.18 1171.5,1381.5C 1173.93,1394.57 1168.93,1403.4 1156.5,1408C 918.5,1408.67 680.5,1408.67 442.5,1408C 429.842,1403.52 424.842,1394.69 427.5,1381.5C 382.739,1073.51 338.073,765.509 293.5,457.5C 262.325,457.111 239.825,443.111 226,415.5C 214.823,381.031 223.99,353.531 253.5,333C 258.367,330.226 263.367,328.059 268.5,326.5 Z M 789.5,447.5 C 824.407,444.685 846.574,460.019 856,493.5C 857.022,756.5 857.355,1019.5 857,1282.5C 849.34,1312.24 830.173,1327.58 799.5,1328.5C 768.827,1327.58 749.66,1312.24 742,1282.5C 741.633,1021.83 741.967,761.166 743,500.5C 746.681,472.327 762.181,454.66 789.5,447.5 Z M 547.5,449.5 C 582.407,446.685 604.574,462.019 614,495.5C 633.655,751.469 652.822,1007.47 671.5,1263.5C 670.882,1294.57 655.549,1314.07 625.5,1322C 590.571,1325.3 568.404,1310.13 559,1276.5C 539.612,1021.52 520.445,766.518 501.5,511.5C 499.986,488.029 508.986,469.862 528.5,457C 534.718,453.879 541.051,451.379 547.5,449.5 Z M 1031.5,449.5 C 1066.41,446.685 1088.57,462.019 1098,495.5C 1098.67,502.5 1098.67,509.5 1098,516.5C 1078.37,769.817 1059.04,1023.15 1040,1276.5C 1030.6,1310.13 1008.43,1325.3 973.5,1322C 949,1316.17 933.833,1301 928,1276.5C 927.462,1261.82 927.795,1247.15 929,1232.5C 947.666,988.504 966.333,744.504 985,500.5C 989.601,473.406 1005.1,456.406 1031.5,449.5 Z"/></g>
</svg>
