<?xml version="1.0" standalone="no"?>
<!DOCTYPE svg PUBLIC "-//W3C//DTD SVG 20010904//EN"
 "http://www.w3.org/TR/2001/REC-SVG-20010904/DTD/svg10.dtd">
<svg version="1.0" xmlns="http://www.w3.org/2000/svg"
 width="256.000000pt" height="256.000000pt" viewBox="0 0 256.000000 256.000000"
 preserveAspectRatio="xMidYMid meet">

<g transform="translate(0.000000,256.000000) scale(0.100000,-0.100000)"
fill="#cccccc" stroke="none">
<path d="M463 2541 c-219 -63 -391 -239 -447 -458 -15 -55 -16 -153 -14 -825
l3 -763 23 -65 c67 -185 212 -332 395 -399 l72 -26 785 0 785 0 72 26 c183 67
328 214 395 399 l23 65 0 785 0 785 -26 72 c-67 183 -214 328 -399 395 l-65
23 -770 2 c-711 2 -775 0 -832 -16z m1550 -204 c85 -25 134 -53 197 -113 64
-61 100 -121 126 -209 16 -54 17 -122 18 -730 1 -745 1 -740 -67 -854 -37 -61
-121 -143 -178 -172 -106 -54 -111 -54 -829 -54 -715 1 -725 2 -829 54 -57 29
-141 111 -178 172 -66 110 -66 112 -67 844 -1 602 1 666 17 724 44 160 143
270 292 322 90 31 240 37 875 35 490 -3 573 -5 623 -19z"/>
</g>
</svg>
